<?xml version="1.0" standalone="no"?>
<!DOCTYPE svg PUBLIC "-//W3C//DTD SVG 20010904//EN"
 "http://www.w3.org/TR/2001/REC-SVG-20010904/DTD/svg10.dtd">
<svg version="1.0" xmlns="http://www.w3.org/2000/svg"
 width="500.000000pt" height="500.000000pt" viewBox="0 0 500.000000 500.000000"
 preserveAspectRatio="xMidYMid meet">

<g transform="translate(0.000000,500.000000) scale(0.100000,-0.100000)"
fill="#000000" stroke="none">
<path d="M2345 4590 c-501 -30 -985 -256 -1347 -628 -313 -322 -504 -705 -575
-1154 -22 -143 -22 -486 1 -623 76 -453 261 -824 571 -1144 368 -381 853 -605
1363 -630 291 -14 535 12 752 81 368 117 652 293 912 567 409 429 613 1001
569 1594 -56 755 -504 1411 -1186 1738 -333 160 -669 223 -1060 199z m308
-215 c38 -28 44 -60 18 -95 -27 -37 -26 -41 4 -74 14 -15 25 -31 25 -36 0 -15
-46 -23 -85 -16 -30 6 -35 11 -35 34 0 28 -16 52 -33 52 -9 0 -6 -31 8 -62 6
-16 0 -18 -53 -18 -63 0 -82 11 -62 35 9 10 11 45 8 111 l-4 96 91 -4 c70 -3
97 -8 118 -23z m288 -26 c49 -11 91 -25 95 -30 8 -13 -6 -69 -17 -69 -5 0 -15
16 -23 35 -12 29 -20 35 -45 35 -27 0 -31 -4 -37 -35 -8 -44 0 -54 25 -31 25
23 32 9 19 -42 -11 -45 -27 -55 -35 -22 -8 29 -30 25 -36 -7 -7 -38 0 -50 35
-57 24 -5 37 -1 53 14 28 26 35 25 35 -4 0 -51 -33 -53 -182 -10 -61 18 -67
24 -44 43 19 16 48 144 40 176 -8 31 0 32 117 4z m-812 -15 c79 -47 80 -171 2
-216 -48 -28 -87 -31 -136 -9 -98 43 -100 177 -4 224 43 21 103 22 138 1z
m-359 -107 c0 -28 62 -121 95 -143 14 -9 25 -20 25 -25 0 -13 -99 -61 -110
-54 -6 4 -10 15 -10 26 0 15 -46 99 -55 99 -1 0 2 -21 6 -47 14 -84 11 -111
-12 -118 -15 -5 -32 4 -69 39 -27 25 -51 46 -54 46 -14 0 28 -90 45 -95 25 -8
24 -20 -3 -39 -32 -23 -48 -20 -48 9 0 41 -41 149 -64 168 l-21 17 24 20 c45
38 67 36 117 -10 25 -23 47 -40 49 -38 2 1 -1 26 -7 55 -13 64 -9 75 34 96 45
22 58 21 58 -6z m1520 3 c66 -34 90 -97 48 -124 -31 -19 -53 5 -50 52 3 51
-17 71 -53 52 -42 -23 -59 -106 -29 -148 17 -25 81 -31 102 -10 16 16 29 1 16
-20 -17 -26 -78 -45 -119 -38 -21 4 -50 21 -70 42 -30 29 -35 42 -35 80 0 51
13 82 44 104 49 36 90 38 146 10z m260 -151 l43 -31 -31 -24 c-36 -29 -92
-116 -92 -144 0 -28 -27 -25 -73 5 -37 26 -49 55 -22 55 20 0 95 115 95 146 0
34 27 31 80 -7z m-2160 -71 c0 -12 18 -43 40 -70 23 -26 46 -61 51 -78 15 -43
-13 -88 -74 -119 -42 -20 -51 -22 -78 -11 -16 7 -46 33 -67 57 -20 25 -47 49
-59 54 -20 7 -22 12 -13 29 13 24 80 71 92 64 4 -3 8 -14 8 -25 0 -11 6 -26
13 -34 7 -7 25 -26 38 -43 36 -42 64 -55 89 -42 33 18 25 61 -22 119 -23 28
-49 51 -59 51 -29 0 -33 20 -8 46 28 30 49 31 49 2z m2382 -107 c70 -67 72
-70 59 -94 -13 -25 -39 -42 -49 -33 -2 3 0 18 6 34 8 23 7 35 -4 51 -20 28
-39 27 -69 -4 -32 -31 -31 -35 5 -35 37 0 38 -15 3 -52 -34 -36 -43 -35 -43 2
0 17 -3 30 -7 30 -16 0 -43 -35 -43 -57 0 -32 -13 -29 -60 13 -41 37 -52 64
-25 64 20 0 125 111 125 133 0 32 30 17 102 -52z m-1073 28 c387 -63 685 -234
930 -534 112 -138 186 -276 245 -465 49 -153 66 -267 66 -430 0 -167 -18 -281
-65 -430 -105 -326 -301 -586 -585 -775 -116 -77 -211 -122 -361 -170 -144
-46 -267 -65 -431 -65 -185 0 -308 22 -493 86 -158 56 -333 160 -461 275 -87
79 -78 70 -156 164 -169 206 -271 431 -313 690 -28 172 -14 451 31 599 50 167
140 358 221 466 66 89 79 105 139 164 195 196 421 329 665 391 166 42 425 58
568 34z m1293 -271 c62 -82 67 -97 39 -120 -29 -23 -49 -10 -30 20 10 16 10
26 1 46 -13 30 -33 33 -67 10 -32 -21 -32 -34 0 -34 34 0 32 -21 -5 -48 -40
-30 -51 -28 -43 8 6 34 2 36 -32 14 -31 -20 -32 -43 -4 -73 16 -17 27 -21 50
-16 22 5 29 3 29 -9 0 -16 -29 -36 -52 -36 -13 1 -53 49 -110 135 -34 48 -34
55 -7 55 30 0 138 80 145 107 5 20 8 21 26 9 11 -8 38 -38 60 -68z m-2838 40
c9 -12 16 -30 16 -40 0 -15 9 -18 54 -18 48 0 54 -2 49 -19 -3 -10 -18 -34
-33 -52 -25 -30 -31 -33 -49 -21 -30 18 -72 16 -65 -3 4 -8 17 -15 29 -15 38
0 40 -19 7 -63 -31 -43 -62 -60 -62 -33 0 19 -116 108 -144 110 -26 2 -23 18
11 69 68 99 151 136 187 85z m-386 -1144 c16 -11 22 -25 22 -54 0 -29 -6 -43
-22 -54 -48 -34 -108 -4 -108 54 0 58 60 88 108 54z m3550 0 c16 -11 22 -25
22 -54 0 -29 -6 -43 -22 -54 -51 -36 -108 -7 -108 54 0 42 26 70 65 70 11 0
31 -7 43 -16z m-3121 -1054 c77 -82 102 -161 63 -200 -32 -32 -90 -20 -134 29
-25 28 -44 27 -52 -4 -8 -31 -21 -32 -46 -2 -51 57 -58 87 -20 87 25 0 132 91
132 112 0 28 15 22 57 -22z m2723 -15 c66 -34 81 -135 30 -197 -106 -129 -290
-3 -208 143 35 63 114 87 178 54z m-2526 -205 c71 -54 127 -111 120 -123 -15
-25 -37 -46 -45 -42 -4 3 -5 20 -2 39 4 27 1 36 -18 50 -22 15 -25 14 -51 -11
-36 -35 -35 -47 2 -39 39 7 40 -11 2 -47 -35 -33 -42 -34 -42 -2 0 29 -7 31
-32 8 -41 -37 2 -91 62 -78 33 7 37 -1 17 -30 -22 -28 -55 -13 -137 64 -75 69
-75 69 -49 79 36 14 119 111 119 139 0 30 7 29 54 -7z m2274 -22 c17 -17 15
-55 -4 -62 -25 -10 -42 -7 -58 10 -22 22 -60 14 -64 -13 -7 -45 56 -103 111
-103 31 0 59 31 61 69 2 40 12 48 26 20 15 -26 7 -82 -15 -116 -23 -35 -94
-65 -135 -56 -18 3 -48 21 -66 40 -29 29 -34 40 -34 82 0 54 22 90 74 122 35
21 86 25 104 7z m-2035 -159 c100 -50 145 -106 127 -154 -6 -15 -22 -30 -40
-36 -32 -12 -38 -36 -20 -83 13 -35 0 -39 -51 -13 -44 22 -44 22 -41 70 2 37
0 47 -12 47 -11 0 -16 -9 -16 -28 0 -16 -3 -31 -6 -35 -12 -12 -114 45 -114
63 0 5 9 11 20 15 21 7 90 127 90 157 0 23 12 23 63 -3z m1777 -14 c0 -14 14
-52 30 -85 17 -33 30 -70 30 -82 0 -53 -62 -98 -135 -98 -41 0 -61 17 -101 89
-16 28 -37 54 -46 57 -28 9 -21 21 25 49 58 33 77 33 77 -2 0 -16 15 -53 33
-83 27 -46 38 -56 64 -58 24 -2 34 2 44 19 10 19 6 32 -22 90 -18 38 -41 71
-51 75 -23 7 -23 23 0 40 29 22 52 17 52 -11z m-1492 -126 c25 -8 35 -23 59
-80 15 -38 31 -69 35 -69 10 0 20 58 13 80 -5 16 -2 20 19 20 49 0 78 -29 42
-43 -8 -3 -28 -48 -44 -99 -17 -51 -35 -94 -40 -96 -21 -7 -61 47 -88 118
l-28 75 -14 -35 c-8 -19 -15 -50 -15 -67 1 -28 -3 -33 -21 -33 -12 0 -30 6
-41 13 -17 13 -17 14 2 28 25 18 67 142 59 174 -7 29 10 32 62 14z m1190 -31
c18 -18 15 -35 -10 -58 l-22 -20 32 0 c33 0 72 -29 72 -54 0 -21 -38 -65 -72
-82 -39 -20 -117 -44 -146 -44 -19 0 -21 4 -16 24 7 30 -31 155 -54 173 -16
12 -16 14 3 26 61 38 189 59 213 35z m-792 -71 c7 -7 24 -55 38 -107 15 -52
34 -102 43 -112 14 -16 14 -18 -1 -24 -18 -7 -101 1 -117 12 -5 3 -5 13 1 25
16 29 4 39 -45 39 -42 0 -44 -1 -42 -27 2 -25 -1 -28 -27 -26 -42 3 -55 20
-29 38 24 17 108 163 99 172 -3 3 -1 12 6 20 13 16 55 10 74 -10z m480 -11
c-8 -31 21 -156 41 -178 21 -23 11 -34 -37 -41 -56 -7 -82 1 -75 24 7 22 -4
109 -14 109 -4 0 -12 -27 -19 -59 -21 -101 -54 -106 -100 -14 l-29 57 -5 -38
c-2 -21 2 -49 9 -64 16 -30 5 -42 -39 -42 -28 0 -39 22 -18 35 15 9 13 168 -2
183 -18 18 7 32 60 32 41 0 44 -2 62 -42 33 -74 36 -75 50 -17 15 64 30 79 83
79 36 0 39 -2 33 -24z"/>
<path d="M2552 4368 c-7 -7 -12 -32 -12 -56 0 -41 1 -43 28 -40 24 3 27 8 30
45 2 33 -1 44 -16 52 -13 7 -22 7 -30 -1z"/>
<path d="M2000 4305 c-23 -28 40 -157 82 -171 48 -15 48 51 1 123 -32 49 -66
69 -83 48z"/>
<path d="M2335 3481 c-131 -33 -220 -86 -313 -186 -76 -81 -132 -181 -157
-280 -18 -70 -20 -212 -4 -287 14 -64 86 -231 136 -313 58 -96 163 -255 204
-312 44 -58 45 -57 -51 -68 -227 -27 -430 -120 -460 -210 -46 -140 108 -242
455 -301 144 -24 454 -29 620 -10 149 17 296 51 390 88 66 27 150 100 160 141
19 74 -29 149 -123 192 -31 15 -65 31 -74 36 -31 16 -172 49 -260 61 -49 7
-88 16 -88 21 0 9 29 56 45 73 6 6 31 42 55 80 25 38 47 71 51 74 3 3 14 21
24 40 9 19 23 42 30 50 30 36 117 220 145 306 39 123 41 229 6 357 -51 184
-200 352 -373 420 -124 49 -291 60 -418 28z m311 -66 c173 -39 349 -206 415
-395 30 -87 31 -219 2 -305 -49 -144 -217 -442 -300 -535 -13 -14 -23 -27 -23
-31 0 -3 -19 -30 -42 -61 -24 -30 -52 -67 -63 -82 -22 -31 -71 -93 -110 -141
l-25 -30 -23 25 c-12 14 -66 84 -120 155 -53 72 -106 143 -118 158 -36 46
-146 218 -180 282 -17 33 -36 63 -41 66 -5 3 -9 8 -8 10 1 2 -13 36 -30 74
-89 195 -91 320 -9 493 37 77 47 90 125 168 93 92 220 152 359 168 41 4 118
-3 191 -19z m-346 -1448 c8 -7 21 -22 27 -35 12 -19 10 -22 -10 -27 -12 -3
-37 -7 -54 -8 -18 -1 -33 -5 -33 -9 0 -3 -14 -9 -30 -13 -84 -18 -115 -93 -61
-144 99 -92 564 -103 702 -16 40 26 54 60 39 99 -15 39 -38 51 -199 95 l-23 7
28 33 28 33 71 -6 c141 -13 337 -72 403 -123 67 -50 74 -68 42 -113 -38 -54
-245 -131 -410 -154 -337 -47 -756 -9 -950 85 -87 42 -122 75 -118 113 2 26
14 38 64 72 117 78 435 151 484 111z m100 -124 c0 -5 23 -33 50 -63 l49 -55
58 63 58 63 70 -15 c147 -31 157 -48 49 -84 -130 -44 -392 -40 -501 8 -24 10
-43 24 -43 30 0 13 37 28 115 45 71 16 95 18 95 8z"/>
<path d="M2395 3164 c-108 -39 -180 -106 -209 -196 -23 -71 -21 -184 4 -252
53 -141 216 -227 372 -196 34 6 79 20 99 31 53 27 117 96 144 157 21 45 24 66
22 145 -2 79 -6 100 -31 150 -16 32 -49 75 -74 97 -79 70 -230 99 -327 64z
m210 -75 c138 -61 202 -240 131 -361 -115 -197 -365 -195 -476 2 -34 62 -35
165 -1 230 70 134 214 188 346 129z"/>
<path d="M1023 3644 c-6 -17 50 -73 73 -74 18 0 25 29 14 50 -20 38 -76 53
-87 24z"/>
<path d="M1167 1413 c-45 -32 -50 -63 -9 -63 33 0 75 40 70 66 -5 27 -20 26
-61 -3z"/>
<path d="M3763 1414 c-10 -26 9 -47 67 -76 60 -31 108 -36 117 -13 8 22 -24
54 -82 81 -59 28 -93 30 -102 8z"/>
<path d="M1648 1033 c-24 -28 -40 -62 -33 -73 11 -18 44 -10 61 14 29 45 5 96
-28 59z"/>
<path d="M2996 901 c-6 -9 10 -61 18 -61 14 0 33 33 29 50 -5 20 -37 28 -47
11z"/>
<path d="M3020 805 c0 -9 7 -32 15 -51 11 -26 19 -34 31 -30 8 3 18 6 20 6 8
0 4 52 -6 71 -13 23 -60 26 -60 4z"/>
<path d="M2236 761 c-19 -36 -12 -51 27 -51 20 0 20 3 3 50 l-13 35 -17 -34z"/>
</g>
</svg>
